<?xml version="1.0" encoding="utf-8"?><svg fill="#22d3ee" version="1.1" id="Layer_1" xmlns="http://www.w3.org/2000/svg" xmlns:xlink="http://www.w3.org/1999/xlink" x="0px" y="0px" viewBox="0 0 117.78 122.88" style="enable-background:new 0 0 117.78 122.88" xml:space="preserve"><style type="text/css">.st0{fill-rule:evenodd;clip-rule:evenodd;}</style><g><path class="st0" d="M7.25,23.25H0l0.69-4.89h19.91l-0.69,4.89h-7.25L9.22,47.79H3.82L7.25,23.25L7.25,23.25z M71.74,7.72H29.89 c-2.73,0-5.25,0.47-7.51,1.42c-0.88,0.37-1.74,0.81-2.57,1.32H8.42c0.69-0.87,1.44-1.72,2.26-2.53c2.63-2.63,5.57-4.62,8.77-5.93 S26.11,0,29.84,0h18.95l0.05,0.05l0,0h41.84c3.68,0,7.14,0.69,10.4,2c3.2,1.31,6.14,3.31,8.77,5.93c2.63,2.63,4.62,5.56,5.93,8.77 c1.31,3.2,1.99,6.67,1.99,10.39v40.85c0,3.73-0.68,7.19-1.99,10.39c-1.31,3.2-3.31,6.14-5.93,8.77c-2.62,2.62-5.57,4.57-8.77,5.93 c-3.2,1.31-6.67,1.99-10.4,1.99H77.14c-2.36,2.99-4.94,5.83-7.66,8.4c-3.26,3.05-6.72,5.78-10.45,8.19 c-3.73,2.46-7.72,4.62-11.97,6.46c-4.2,1.84-8.71,3.36-13.44,4.62c-1.36,0.37-2.84-0.05-3.83-1.16c-1.42-1.57-1.26-3.99,0.31-5.41 c2.21-1.94,4.09-3.94,5.62-5.93c1.47-1.94,2.68-3.94,3.57-5.99v-0.05c1-2.21,1.89-4.46,2.68-6.72c0.26-0.79,0.52-1.63,0.78-2.47 H29.84c-3.68,0-7.14-0.68-10.39-1.99c-3.2-1.31-6.14-3.31-8.77-5.93c-2.63-2.63-4.62-5.57-5.93-8.77 c-1.31-3.26-1.99-6.72-1.99-10.39V56.38h7.72v11.61c0,2.73,0.47,5.25,1.42,7.51c0.94,2.26,2.36,4.36,4.25,6.25 c1.94,1.89,4.04,3.36,6.3,4.25c2.26,0.95,4.73,1.42,7.46,1.42h17.95c2.1,0,3.83,1.73,3.83,3.83c0,0.47-0.1,0.89-0.21,1.31 c-0.68,2.52-1.42,5.04-2.26,7.46c-0.89,2.57-1.84,4.99-2.89,7.35c-0.53,1.21-1.16,2.36-1.84,3.57c3.68-1.63,7.14-3.52,10.34-5.62 c3.36-2.2,6.51-4.67,9.4-7.35c2.94-2.73,5.56-5.72,7.98-8.93c0.74-1,1.89-1.52,3.05-1.52h15.43c2.73,0,5.2-0.47,7.46-1.42 c2.26-0.94,4.36-2.36,6.3-4.25c1.89-1.89,3.31-3.99,4.25-6.25c0.94-2.26,1.42-4.78,1.42-7.51V27.25c0-2.73-0.47-5.25-1.42-7.51 c-0.94-2.26-2.36-4.36-4.25-6.25c-1.89-1.89-3.99-3.31-6.25-4.26c-2.26-0.94-4.78-1.42-7.51-1.42H71.74V7.72L71.74,7.72L71.74,7.72 z M83.54,74.39c-1.59,0-2.81-0.46-3.64-1.37c-0.83-0.91-1.25-2.19-1.25-3.83c0-0.31,0.04-0.77,0.12-1.37 c0.08-0.6,0.21-1.56,0.39-2.87l1.54-11.29h4.55l-1.46,10.75c-0.28,2.08-0.42,3.16-0.42,3.24c0,0.9,0.18,1.55,0.52,1.95 c0.34,0.4,0.92,0.6,1.71,0.6c0.92,0,1.74-0.39,2.45-1.16c0.71-0.77,1.14-1.84,1.33-3.2l1.66-12.18h4.59l-2.81,20.27h-3.78v-2.62 C87.55,73.37,85.72,74.39,83.54,74.39L83.54,74.39z M67.31,74.39c-4.78,0-7.17-2.47-7.17-7.4c0-3.73,0.7-6.96,2.1-9.69 c1.4-2.73,3.82-4.1,7.26-4.1c4.78,0,7.17,2.5,7.17,7.51c0,3.72-0.7,6.94-2.1,9.63C73.17,73.04,70.75,74.39,67.31,74.39L67.31,74.39 z M67.46,70.5c1.8,0,2.99-1.14,3.58-3.41c0.59-2.27,0.89-4.4,0.89-6.38c0-2.42-0.86-3.62-2.58-3.62c-1.8,0-2.99,1.14-3.58,3.41 c-0.59,2.27-0.89,4.4-0.89,6.38c0,1.21,0.21,2.11,0.62,2.72C65.9,70.2,66.56,70.5,67.46,70.5L67.46,70.5z M44.68,80.94 c-0.8,0-1.48-0.05-2.04-0.13c-0.57-0.09-0.85-0.16-0.85-0.21l0.42-3.55h2.08c0.69,0,1.35-0.26,1.97-0.77 c0.62-0.51,1.13-1.3,1.54-2.35l-3.85-20.27h4.62l1.7,9.52c0.11,0.64,0.21,1.58,0.33,2.81c0.11,1.23,0.19,2.06,0.21,2.47h0.15 c0.1-0.39,0.34-1.18,0.71-2.37c0.37-1.19,0.7-2.15,0.98-2.87l3.82-9.56h4.55l-8.13,19.23c-1.06,2.5-2.27,4.46-3.58,5.9 C47.99,80.23,46.45,80.94,44.68,80.94L44.68,80.94z M82.67,16.77h5.11l-2.36,16.9l7.12-8.45h5.79l-7.89,9.27l5.06,13.3h-5.41 l-3.26-9.22l-2.4,2.36l-0.94,6.86h-5.11L82.67,16.77L82.67,16.77z M60.99,25.23h4.16v3c1.57-2.35,3.62-3.52,6.14-3.52 c1.77,0,3.13,0.51,4.05,1.52c0.93,1.01,1.39,2.44,1.39,4.27c0,0.34-0.04,0.85-0.13,1.52c-0.08,0.67-0.23,1.74-0.43,3.2l-1.72,12.57 H69.4l1.63-11.97c0.32-2.32,0.47-3.52,0.47-3.6c0-1-0.19-1.73-0.58-2.17c-0.38-0.44-1.02-0.67-1.91-0.67 c-1.03,0-1.94,0.43-2.72,1.29c-0.79,0.86-1.28,2.05-1.48,3.56l-1.84,13.56h-5.11L60.99,25.23L60.99,25.23z M45.32,48.31 c-1.94,0-3.45-0.67-4.5-2.02c-1.06-1.34-1.59-3.33-1.59-5.96c0-3.46,0.4-6.37,1.2-8.71c0.8-2.34,1.85-4.08,3.15-5.21 c1.3-1.13,2.7-1.69,4.18-1.69c2.29,0,3.86,1.07,4.72,3.22l0.86-2.7h3.99c-0.29,1.77-0.8,5.09-1.54,9.95 c-0.74,4.86-1.12,7.39-1.12,7.59c0,0.8,0.34,1.2,1.03,1.2h0.77l-0.52,3.65c-0.77,0.46-1.62,0.69-2.53,0.69 c-0.94,0-1.72-0.27-2.32-0.79c-0.6-0.53-1.02-1.27-1.24-2.21c-0.51,1-1.2,1.75-2.04,2.25C46.99,48.06,46.15,48.31,45.32,48.31 L45.32,48.31z M46.65,43.89c1.09,0,1.96-0.61,2.62-1.82c0.66-1.21,1.12-2.64,1.37-4.27c0.26-1.63,0.39-3.13,0.39-4.5 c0-1.4-0.17-2.45-0.51-3.13c-0.34-0.68-0.93-1.03-1.76-1.03c-1.09,0-1.96,0.64-2.62,1.93c-0.66,1.29-1.12,2.75-1.39,4.4 c-0.27,1.64-0.41,3.04-0.41,4.18C44.34,42.47,45.11,43.89,46.65,43.89L46.65,43.89z M23.05,16.77h5.11l-1.54,10.81 c1.57-1.92,3.43-2.87,5.58-2.87c1.77,0,3.13,0.51,4.05,1.52c0.93,1.01,1.39,2.44,1.39,4.27c0,0.34-0.04,0.85-0.13,1.52 c-0.08,0.67-0.23,1.74-0.43,3.2l-1.72,12.57H30.3c1.4-10.1,2.1-15.29,2.1-15.57c0-1-0.19-1.73-0.58-2.17 c-0.38-0.44-1.02-0.67-1.91-0.67c-1.03,0-1.93,0.43-2.7,1.29c-0.77,0.86-1.25,2.05-1.46,3.56l-1.89,13.56h-5.11L23.05,16.77 L23.05,16.77z"/></g></svg>